<svg xmlns="http://www.w3.org/2000/svg" xmlns:xlink="http://www.w3.org/1999/xlink" width="1920" height="600" viewBox="0 0 1920 600">
  <defs>
    <clipPath id="clip-banner-bg">
      <rect width="1920" height="600"/>
    </clipPath>
  </defs>
  <g id="banner-bg" clip-path="url(#clip-banner-bg)">
    <rect width="1920" height="600" fill="#fff"/>
    <g id="Group_5" data-name="Group 5" transform="translate(-53)" opacity="0.5">
      <g id="Polygon_1" data-name="Polygon 1" transform="translate(435.187 151.667) rotate(40)" fill="none">
        <path d="M37.574,11.985a8,8,0,0,1,13.853,0L82.063,65a8,8,0,0,1-6.926,12H13.863A8,8,0,0,1,6.937,65Z" stroke="none"/>
        <path d="M 44.5 13.98812866210938 C 44.06896591186523 13.98812866210938 43.27085113525391 14.11794281005859 42.76838302612305 14.98738861083984 L 12.13165283203125 67.99925994873047 C 11.62879943847656 68.86933898925781 11.91539764404297 69.62602233886719 12.13099670410156 69.99962615966797 C 12.34660339355469 70.37322235107422 12.85832977294922 70.99999237060547 13.86326599121094 70.99999237060547 L 75.13673400878906 70.99999237060547 C 76.14166259765625 70.99999237060547 76.65339660644531 70.37322235107422 76.86900329589844 69.99962615966797 C 77.08460235595703 69.62602233886719 77.37120056152344 68.86933898925781 76.86834716796875 67.99925994873047 L 46.23161697387695 14.98737335205078 C 45.72914886474609 14.11794281005859 44.93103408813477 13.98812866210938 44.5 13.98812866210938 M 44.49999237060547 7.988121032714844 C 47.19324493408203 7.988121032714844 49.88650131225586 9.320465087890625 51.42648315429688 11.98516082763672 L 82.06321716308594 64.99702453613281 C 85.14546966552734 70.33036041259766 81.29666900634766 76.99999237060547 75.13673400878906 76.99999237060547 L 13.86326599121094 76.99999237060547 C 7.703330993652344 76.99999237060547 3.854530334472656 70.33036041259766 6.936782836914063 64.99702453613281 L 37.57351684570313 11.98516082763672 C 39.11349105834961 9.320465087890625 41.80673980712891 7.988121032714844 44.49999237060547 7.988121032714844 Z" stroke="none" fill="#fdcb6e"/>
      </g>
      <g id="Polygon_4" data-name="Polygon 4" transform="translate(722.5 85.736) rotate(-51)" fill="none">
        <path d="M37.574,11.985a8,8,0,0,1,13.853,0L82.063,65a8,8,0,0,1-6.926,12H13.863A8,8,0,0,1,6.937,65Z" stroke="none"/>
        <path d="M 44.5 13.98812866210938 C 44.06896591186523 13.98812866210938 43.27085113525391 14.11794281005859 42.76838302612305 14.98738861083984 L 12.13165283203125 67.99925994873047 C 11.62879943847656 68.86933898925781 11.91539764404297 69.62602233886719 12.13099670410156 69.99962615966797 C 12.34660339355469 70.37322235107422 12.85832977294922 70.99999237060547 13.86326599121094 70.99999237060547 L 75.13673400878906 70.99999237060547 C 76.14166259765625 70.99999237060547 76.65339660644531 70.37322235107422 76.86900329589844 69.99962615966797 C 77.08460235595703 69.62602233886719 77.37120056152344 68.86933898925781 76.86834716796875 67.99925994873047 L 46.23161697387695 14.98737335205078 C 45.72914886474609 14.11794281005859 44.93103408813477 13.98812866210938 44.5 13.98812866210938 M 44.49999237060547 7.988121032714844 C 47.19324493408203 7.988121032714844 49.88650131225586 9.320465087890625 51.42648315429688 11.98516082763672 L 82.06321716308594 64.99702453613281 C 85.14546966552734 70.33036041259766 81.29666900634766 76.99999237060547 75.13673400878906 76.99999237060547 L 13.86326599121094 76.99999237060547 C 7.703330993652344 76.99999237060547 3.854530334472656 70.33036041259766 6.936782836914063 64.99702453613281 L 37.57351684570313 11.98516082763672 C 39.11349105834961 9.320465087890625 41.80673980712891 7.988121032714844 44.49999237060547 7.988121032714844 Z" stroke="none" fill="#fdcb6e"/>
      </g>
      <g id="Polygon_2" data-name="Polygon 2" transform="translate(692.509 306.261) rotate(-13)" fill="none">
        <path d="M37.574,11.985a8,8,0,0,1,13.853,0L82.063,65a8,8,0,0,1-6.926,12H13.863A8,8,0,0,1,6.937,65Z" stroke="none"/>
        <path d="M 44.5 13.98812866210938 C 44.06896591186523 13.98812866210938 43.27085113525391 14.11794281005859 42.76838302612305 14.98738861083984 L 12.13165283203125 67.99925994873047 C 11.62879943847656 68.86933898925781 11.91539764404297 69.62602233886719 12.13099670410156 69.99962615966797 C 12.34660339355469 70.37322235107422 12.85832977294922 70.99999237060547 13.86326599121094 70.99999237060547 L 75.13673400878906 70.99999237060547 C 76.14166259765625 70.99999237060547 76.65339660644531 70.37322235107422 76.86900329589844 69.99962615966797 C 77.08460235595703 69.62602233886719 77.37120056152344 68.86933898925781 76.86834716796875 67.99925994873047 L 46.23161697387695 14.98737335205078 C 45.72914886474609 14.11794281005859 44.93103408813477 13.98812866210938 44.5 13.98812866210938 M 44.49999237060547 7.988121032714844 C 47.19324493408203 7.988121032714844 49.88650131225586 9.320465087890625 51.42648315429688 11.98516082763672 L 82.06321716308594 64.99702453613281 C 85.14546966552734 70.33036041259766 81.29666900634766 76.99999237060547 75.13673400878906 76.99999237060547 L 13.86326599121094 76.99999237060547 C 7.703330993652344 76.99999237060547 3.854530334472656 70.33036041259766 6.936782836914063 64.99702453613281 L 37.57351684570313 11.98516082763672 C 39.11349105834961 9.320465087890625 41.80673980712891 7.988121032714844 44.49999237060547 7.988121032714844 Z" stroke="none" fill="#fdcb6e"/>
      </g>
      <g id="Polygon_3" data-name="Polygon 3" transform="translate(394.699 486.552) rotate(-48)" fill="none">
        <path d="M25.4,11.985a8,8,0,0,1,13.853,0L57.724,43.94a8,8,0,0,1-6.926,12H13.863a8,8,0,0,1-6.926-12Z" stroke="none"/>
        <path d="M 32.33054351806641 13.98812866210938 C 31.89950180053711 13.98812866210938 31.10138320922852 14.11794281005859 30.59891510009766 14.98738479614258 L 12.13164901733398 46.94199752807617 C 11.62881088256836 47.81208801269531 11.91540908813477 48.56877136230469 12.13101196289063 48.94236755371094 C 12.34659576416016 49.31598281860352 12.85832977294922 49.94274139404297 13.86326217651367 49.94274139404297 L 50.79782485961914 49.94274139404297 C 51.80275726318359 49.94274139404297 52.31449127197266 49.31598281860352 52.53007507324219 48.94236755371094 C 52.74567794799805 48.56877136230469 53.03227615356445 47.81208801269531 52.52943801879883 46.94199752807617 L 34.06217193603516 14.98738479614258 C 33.5597038269043 14.11794281005859 32.76158142089844 13.98812866210938 32.33054351806641 13.98812866210938 M 32.33054351806641 7.988124847412109 C 35.02379989624023 7.988124847412109 37.71705627441406 9.320468902587891 39.25703430175781 11.98515701293945 L 57.72430419921875 43.93976974487305 C 60.80655670166016 49.27310180664063 56.95774459838867 55.94274139404297 50.79782485961914 55.94274139404297 L 13.86326217651367 55.94274139404297 C 7.703342437744141 55.94274139404297 3.854530334472656 49.27310180664063 6.936782836914063 43.93976974487305 L 25.40404891967773 11.98515701293945 C 26.94403076171875 9.320468902587891 29.63728713989258 7.988124847412109 32.33054351806641 7.988124847412109 Z" stroke="none" fill="#fdcb6e"/>
      </g>
      <g id="Ellipse_1" data-name="Ellipse 1" transform="translate(533 322)" fill="none" stroke="#00cec9" stroke-width="6">
        <circle cx="30" cy="30" r="30" stroke="none"/>
        <circle cx="30" cy="30" r="27" fill="none"/>
      </g>
      <g id="Ellipse_4" data-name="Ellipse 4" transform="translate(497 47)" fill="none" stroke="#00cec9" stroke-width="6">
        <circle cx="30" cy="30" r="30" stroke="none"/>
        <circle cx="30" cy="30" r="27" fill="none"/>
      </g>
      <g id="Ellipse_2" data-name="Ellipse 2" transform="translate(797 192)" fill="none" stroke="#00cec9" stroke-width="6">
        <circle cx="30" cy="30" r="30" stroke="none"/>
        <circle cx="30" cy="30" r="27" fill="none"/>
      </g>
      <g id="Ellipse_3" data-name="Ellipse 3" transform="translate(757 438)" fill="none" stroke="#00cec9" stroke-width="6">
        <circle cx="30" cy="30" r="30" stroke="none"/>
        <circle cx="30" cy="30" r="27" fill="none"/>
      </g>
      <g id="Rectangle_10" data-name="Rectangle 10" transform="matrix(0.914, -0.407, 0.407, 0.914, 557.412, 195.709)" fill="none" stroke="#6c5ce7" stroke-width="6">
        <rect width="153" height="60" stroke="none"/>
        <rect x="3" y="3" width="147" height="54" fill="none"/>
      </g>
      <g id="Rectangle_11" data-name="Rectangle 11" transform="translate(533 453)" fill="none" stroke="#6c5ce7" stroke-width="6">
        <rect width="73" height="97" stroke="none"/>
        <rect x="3" y="3" width="67" height="91" fill="none"/>
      </g>
      <g id="Rectangle_12" data-name="Rectangle 12" transform="matrix(0.719, 0.695, -0.695, 0.719, 894.382, 286.24)" fill="none" stroke="#6c5ce7" stroke-width="6">
        <rect width="73" height="97" stroke="none"/>
        <rect x="3" y="3" width="67" height="91" fill="none"/>
      </g>
    </g>
  </g>
</svg>
